<?xml version="1.0" encoding="UTF-8"?>
<svg id="Ebene_1" xmlns="http://www.w3.org/2000/svg" version="1.1" xmlns:xlink="http://www.w3.org/1999/xlink" viewBox="0 0 841.9 595.3">
  <!-- Generator: Adobe Illustrator 29.4.0, SVG Export Plug-In . SVG Version: 2.1.0 Build 152)  -->
  <defs>
    <style>
      .st0 {
        stroke: #fd0;
        stroke-width: 1px;
      }

      .st0, .st1 {
        fill: none;
      }

      .st2 {
        fill: #fd0;
      }

      .st3, .st4 {
        fill: #951b81;
      }

      .st4 {
        font-family: Avenir-Heavy, Avenir;
        font-size: 21px;
        font-weight: 800;
      }

      .st5 {
        fill: #575756;
      }

      .st6 {
        clip-path: url(#clippath);
      }
    </style>
    <clipPath id="clippath">
      <rect class="st1" x="0" y="0" width="841.9" height="595.3"/>
    </clipPath>
  </defs>
  <g class="st6">
    <path class="st3" d="M343.9,56h-4.8c0,0-.1,0-.1,0,0,0,0,0,0-.1v-7.7c0,0,0-.1,0-.1,0,0,0,0,.1,0h4.8c2.2,0,3.8,1.7,3.8,3.8v.4c0,2.2-1.7,3.8-3.8,3.8M338.9,58.8c0,0,0-.1,0-.1,0,0,0,0,.1,0h4.8c2.2,0,3.8,1.7,3.8,3.8v.8c0,2.1-1.7,3.8-3.8,3.8h-4.8c0,0-.1,0-.1,0,0,0,0,0,0-.1v-8.1ZM343.9,45.3h-7.4c-.4,0-.6.2-.6.6v23.1c0,.4.2.6.6.6h7.4c4.2,0,6.9-2.7,6.9-6.8v-.6c0-2.4-1.2-3.5-3-4.9,0,0,0,0,0,0,0,0,0,0,0,0,0,0,.2-.2.4-.3.4-.2,1-.6,1.4-1.2.8-1.1,1.3-2.2,1.3-3.3v-.4c0-4.1-2.7-6.8-6.9-6.8"/>
    <path class="st3" d="M367,52.4h-1.8c-.4,0-.6.2-.6.6v10.2c0,2.1-1.7,3.8-3.8,3.8s-3.8-1.7-3.8-3.8v-10.2c0-.4-.2-.6-.6-.6h-1.8c-.4,0-.6.2-.6.6v10.2c0,3.7,2.8,6.5,6.4,6.5s2.5-.4,3.3-1.2c.2-.2.4-.4.6-.6.2-.3.5-.6.6-.6,0,0,0,0,0,.2v1.6c0,.4.2.6.6.6h1.4c.4,0,.6-.2.6-.6v-16c0-.4-.2-.6-.6-.6"/>
    <path class="st3" d="M379,52.4h-2.8c0,0-.1,0-.1,0,0,0,0,0,0-.1v-2.8c0-.4-.2-.6-.6-.6h-.7l-.4.2-4.4,4.6v.8c0,.4.2.6.6.6h2.2c0,0,.1,0,.1,0,0,0,0,0,0,.1v8.4c0,1.8.7,3.4,1.8,4.6,1.1,1.1,2.6,1.8,4.1,1.8s.7-.3.7-.6v-1.5c0-.4-.3-.6-.4-.6-.3-.1-.5-.3-.8-.4-.7-.3-1.3-.6-1.5-1-.5-.8-.8-1.5-.8-2.4v-8.4c0,0,0-.1,0-.1,0,0,0,0,.1,0h2.8c.4,0,.6-.2.6-.6v-1.4c0-.4-.2-.6-.6-.6"/>
    <path class="st3" d="M395.5,67.1h-8.1c-.1,0-.2,0-.2,0,0,0,0,0,0,0,0,0,0,0,0,0l8.1-13.4s.1-.2.1-.4c0-.3-.2-.6-.7-.6h-11.7c-.4,0-.6.2-.6.6v1.4c0,.4.2.6.6.6h7.3c.1,0,.2,0,.2,0,0,0,0,0,0,.1l-8,13.4c-.1.2-.1.3-.1.4,0,.1,0,.6.7.6h12.4c.4,0,.6-.2.6-.6v-1.4c0-.4-.3-.6-.6-.6"/>
    <path class="st3" d="M431.5,52.4c-1.4,0-2.5.3-3.3,1-.5.4-.9.8-1.2,1-.1.1-.3.3-.4.4,0,0-.3-.2-.4-.4-.3-.3-.7-.7-1.2-1.1-.7-.6-1.7-.9-2.7-.9s-2.2.6-3,1.3c0,0-.2.1-.3.2-.1.1-.3.2-.4.3-.3.2-.5.5-.7.5,0,0,0,0,0-.2v-1.5c0-.4-.2-.6-.6-.6h-1.4c-.4,0-.6.2-.6.6v16c0,.4.2.6.6.6h1.8c.4,0,.6-.2.6-.6v-10.2c0-1.9,1.7-3.8,3.4-3.8s3.4,1.9,3.4,3.8v10.2c0,.4.2.6.6.6h1.8c.4,0,.6-.2.6-.6v-10.2c0-1.9,1.7-3.8,3.4-3.8s3.4,1.9,3.4,3.8v10.2c0,.4.2.6.6.6h1.8c.4,0,.6-.2.6-.6v-10.2c0-3.7-2.7-6.4-6.5-6.4"/>
    <path class="st3" d="M445.1,52.4h-1.8c-.4,0-.6.2-.6.6v16c0,.4.2.6.6.6h1.8c.4,0,.6-.2.6-.6v-16c0-.4-.2-.6-.6-.6"/>
    <path class="st3" d="M444.1,44.9c-1,0-1.9.9-1.9,1.9s.8,2,1.9,2,2-.9,2-2-.8-1.9-2-1.9"/>
    <path class="st3" d="M456.5,67.4c-.3-.1-.5-.3-.8-.4-.7-.3-1.3-.6-1.5-1-.5-.8-.8-1.5-.8-2.4v-17.2c0-.4-.2-.6-.6-.6h-1.8c-.4,0-.6.2-.6.6v17.2h0c0,1.8.7,3.4,1.9,4.6,1.1,1.1,2.6,1.8,4.1,1.8s.7-.3.7-.6v-1.5c0-.4-.3-.6-.4-.6"/>
    <path class="st3" d="M401.4,58.5c0-2.2,1.6-3.8,3.8-3.8s3.8,1.7,3.8,3.8v.5c0,0,0,.1,0,.1,0,0,0,0-.1,0h-7.3c0,0-.1,0-.1,0,0,0,0,0,0-.1v-.5ZM405.1,52.1c-2,0-3.7.7-5,2.1-1.2,1.2-1.9,2.9-1.9,4.3v5.2c0,1.7.6,3.4,1.8,4.6.9.9,2.1,1.5,3.3,1.7.3,0,.6,0,.8,0,.6,0,.7-.3.7-.6v-1.5c0-.4-.3-.6-.4-.6-.3-.1-.5-.3-.8-.4-.7-.3-1.3-.6-1.5-1-.5-.8-.8-1.5-.8-2.4h0v-2.1c0,0,0-.1,0-.1,0,0,0,0,.1,0h9.9c.4,0,.6-.2.6-.6v-2.3c0-3.5-3.2-6.4-6.9-6.4"/>
    <path class="st3" d="M471.1,58.5c0-2.2,1.6-3.8,3.8-3.8s3.8,1.7,3.8,3.8v.5c0,0,0,.1,0,.1,0,0,0,0-.1,0h-7.3c0,0-.1,0-.1,0,0,0,0,0,0-.1v-.5ZM474.9,52.1c-2,0-3.7.7-5,2.1-1.2,1.2-1.9,2.9-1.9,4.3v5.2c0,1.7.6,3.4,1.8,4.6,1.1,1.1,2.6,1.8,4,1.8s.7-.3.7-.6v-1.5c0-.4-.3-.5-.4-.6-.3-.1-.5-.3-.8-.4-.7-.3-1.2-.6-1.5-1-.5-.7-.8-1.5-.8-2.3v-2.2c0,0,0-.1,0-.1,0,0,0,0,.1,0h9.9c.4,0,.6-.2.6-.6v-2.3c0-3.5-3.2-6.4-6.9-6.4"/>
    <path class="st3" d="M465.4,67.4c-.3-.1-.5-.3-.8-.4-.7-.3-1.3-.6-1.5-1-.5-.8-.8-1.5-.8-2.4v-17.2c0-.4-.2-.6-.6-.6h-1.8c-.4,0-.6.2-.6.6v17.2h0c0,1.8.7,3.4,1.9,4.6,1.1,1.1,2.6,1.8,4.1,1.8s.7-.3.7-.6v-1.5c0-.4-.3-.6-.4-.6"/>
    <path class="st3" d="M492.1,51.3h-.7c-3.7,0-6.5,2.8-6.5,6.4v11.5c0,.4.2.6.6.6h1.8c.4,0,.6-.2.6-.6v-11.5c0-2.1,1.7-3.8,3.8-3.8s3.8,1.7,3.8,3.8v11.5c0,.4.2.6.6.6h1.8c.4,0,.6-.2.6-.6v-11.5c0-3.7-2.8-6.4-6.5-6.4"/>
    <path class="st5" d="M362.3,82.1c-.2-.2-.4-.4-.7-.5-.3-.1-.6-.2-1-.2-1.3,0-2.2,1-2.2,2.3s1.2,2.3,2.2,2.3.7-.1,1-.3c.3-.2.5-.4.6-.5v.8c-.6.4-1.2.5-1.7.5-1.6,0-2.9-1.2-2.9-2.8s1.2-2.9,2.9-2.9,1,0,1.6.5v.8Z"/>
    <path class="st5" d="M364.9,83.4h.4c.8,0,1.2-.4,1.2-1s0-.6-.4-.8c-.2-.1-.5-.2-.8-.2h-.4v2ZM365.2,80.8c.4,0,.9,0,1.3.3.3.2.6.6.6,1.2,0,.8-.6,1.5-1.4,1.5l1.8,2.5h-.7l-1.7-2.4h-.2v2.4h-.6v-5.5h.9Z"/>
    <path class="st5" d="M369.5,79.4l.6-.4,1,1.1-.4.3-1.3-1ZM372.1,81.4h-2.2v1.6h2.2v.6h-2.2v2.1h2.2v.6h-2.9v-5.5h2.9v.6Z"/>
    <path class="st5" d="M378.3,82.1c-.2-.2-.4-.4-.7-.5-.3-.1-.6-.2-1-.2-1.3,0-2.2,1-2.2,2.3s1.2,2.3,2.2,2.3.7-.1,1-.3c.3-.2.5-.4.6-.5v.8c-.6.4-1.2.5-1.7.5-1.6,0-2.9-1.2-2.9-2.8s1.2-2.9,2.9-2.9,1,0,1.6.5v.8Z"/>
    <polygon class="st5" points="380.8 83.1 383.7 83.1 383.7 80.8 384.3 80.8 384.3 86.4 383.7 86.4 383.7 83.7 380.8 83.7 380.8 86.4 380.2 86.4 380.2 80.8 380.8 80.8 380.8 83.1"/>
    <polygon class="st5" points="389.4 81.4 387.1 81.4 387.1 83.1 389.3 83.1 389.3 83.6 387.1 83.6 387.1 85.8 389.4 85.8 389.4 86.4 386.5 86.4 386.5 80.8 389.4 80.8 389.4 81.4"/>
    <path class="st5" d="M393.8,81.9c0-.1-.2-.3-.3-.4-.1,0-.3-.2-.6-.2-.5,0-.9.3-.9.9s0,.3.2.5c.2.2.4.3.6.3l.5.2c.3.1.6.3.9.5.3.3.4.6.4,1,0,1-.8,1.7-1.7,1.7s-.8,0-1.2-.4c-.3-.3-.4-.6-.5-1l.6-.2c0,.3.2.5.3.7.2.2.5.3.8.3.8,0,1.1-.5,1.1-1.1s0-.5-.3-.6c-.2-.1-.4-.2-.7-.4l-.5-.2c-.2-.1-.5-.2-.7-.5-.2-.2-.4-.5-.4-.9,0-.9.7-1.4,1.5-1.4s.6,0,.9.2c.2.1.4.4.5.6l-.5.3Z"/>
    <path class="st5" d="M400.9,82.8l.4-.3c.3-.2.4-.4.4-.6,0-.4-.3-.6-.6-.6s-.6.3-.6.6.1.4.2.5l.2.3ZM400.7,83.6c-.4.2-.6.4-.8.6-.2.1-.4.4-.4.8s.4,1,1,1,1.2-.6,1.4-.8l-1.2-1.6ZM403.4,84.3c-.1.2-.4.5-.7.8l.9,1.2h-.8l-.6-.8c-.5.5-1.1.9-1.8.9-.9,0-1.6-.7-1.6-1.5s.3-1,.5-1.1c.3-.3.8-.6.9-.7-.4-.5-.5-.8-.5-1.2,0-.6.4-1.2,1.2-1.2s1.2.6,1.2,1.1,0,.6-.5,1c-.1.1,0,0-.4.4l1.1,1.5c.3-.3.5-.5.6-.7l.4.4Z"/>
    <polygon class="st5" points="410.6 81.4 408.7 81.4 408.7 83 410.5 83 410.5 83.6 408.7 83.6 408.7 86.4 408 86.4 408 80.8 410.6 80.8 410.6 81.4"/>
    <path class="st5" d="M412.8,83.6c0,1.3,1,2.3,2.2,2.3s2.2-1,2.2-2.3-1-2.3-2.2-2.3-2.2,1-2.2,2.3M412.2,83.6c0-1.6,1.3-2.9,2.9-2.9s2.9,1.2,2.9,2.9-1.3,2.9-2.9,2.9-2.9-1.2-2.9-2.9"/>
    <polygon class="st5" points="420.7 84 418.9 80.8 419.6 80.8 421 83.3 422.4 80.8 423.1 80.8 421.3 84 421.3 86.4 420.7 86.4 420.7 84"/>
    <polygon class="st5" points="427.6 81.4 425.3 81.4 425.3 83.1 427.5 83.1 427.5 83.6 425.3 83.6 425.3 85.8 427.6 85.8 427.6 86.4 424.7 86.4 424.7 80.8 427.6 80.8 427.6 81.4"/>
    <path class="st5" d="M430.1,83.4h.4c.8,0,1.2-.4,1.2-1s0-.6-.4-.8c-.2-.1-.5-.2-.8-.2h-.4v2ZM430.4,80.8c.4,0,.9,0,1.3.3.3.2.6.6.6,1.2,0,.8-.6,1.5-1.4,1.5l1.8,2.5h-.7l-1.7-2.4h-.2v2.4h-.6v-5.5h.9Z"/>
    <path class="st5" d="M437,81.9c0-.1-.2-.3-.3-.4-.1,0-.3-.2-.6-.2-.5,0-.9.3-.9.9s0,.3.2.5c.2.2.4.3.6.3l.5.2c.3.1.6.3.9.5s.4.6.4,1c0,1-.8,1.7-1.7,1.7s-.8,0-1.2-.4c-.3-.3-.4-.6-.5-1l.6-.2c0,.3.2.5.3.7.2.2.5.3.8.3.8,0,1.1-.5,1.1-1.1s0-.5-.3-.6c-.2-.1-.4-.2-.7-.4l-.5-.2c-.2-.1-.5-.2-.7-.5-.2-.2-.4-.5-.4-.9,0-.9.7-1.4,1.5-1.4s.6,0,.9.2c.2.1.4.4.5.6l-.5.3Z"/>
    <path class="st5" d="M443,85.8h.5c.4,0,1,0,1.6-.5.4-.3.7-.9.7-1.7,0-1.3-.9-2.2-2.3-2.2h-.5v4.4ZM442.4,80.8h1.1c.6,0,1.3,0,2,.6.5.4.9,1.1.9,2.1s-.6,1.8-1,2.1c-.5.4-1,.6-2,.6h-1.1v-5.5Z"/>
    <polygon class="st5" points="451.3 81.4 449 81.4 449 83.1 451.2 83.1 451.2 83.6 449 83.6 449 85.8 451.3 85.8 451.3 86.4 448.4 86.4 448.4 80.8 451.3 80.8 451.3 81.4"/>
    <path class="st5" d="M457.1,80.8v4c0,.4,0,1-.3,1.3-.2.2-.5.3-.9.3s-.7-.1-1-.4l.3-.5c.2.2.4.3.6.3s.3,0,.4-.2c.2-.2.2-.6.2-.9v-4h.6Z"/>
    <path class="st5" d="M459.7,83.6c0,1.3,1,2.3,2.2,2.3s2.2-1,2.2-2.3-1-2.3-2.2-2.3-2.2,1-2.2,2.3M459.1,83.6c0-1.6,1.3-2.9,2.9-2.9s2.9,1.2,2.9,2.9-1.3,2.9-2.9,2.9-2.9-1.2-2.9-2.9"/>
    <path class="st5" d="M467.4,84.2c0,.5,0,1,.4,1.3.2.2.6.3.9.3s.7-.1.9-.3c.4-.4.4-.9.4-1.3v-3.4h.6v3.6c0,.5,0,.9-.3,1.3-.3.5-.9.7-1.6.7s-1.3-.3-1.6-.7c-.3-.4-.3-.9-.3-1.3v-3.6h.6v3.4Z"/>
    <path class="st5" d="M473.5,83.4h.4c.8,0,1.2-.4,1.2-1s0-.6-.4-.8c-.2-.1-.5-.2-.8-.2h-.4v2ZM473.8,80.8c.4,0,.9,0,1.3.3.3.2.6.6.6,1.2,0,.8-.6,1.5-1.4,1.5l1.8,2.5h-.7l-1.7-2.4h-.2v2.4h-.6v-5.5h.9Z"/>
    <path class="st2" d="M490.6,37.9h0c-.3-.3-.3-.8-.1-1.1l9.4-13.7c.3-.5,1-.5,1.4-.1l4.5,4.5c.4.4.3,1.1-.1,1.4l-13.8,9.3c-.4.2-.8.2-1.1-.1"/>
    <path class="st2" d="M492.9,35.9h0c.3.3.3.8.1,1.1l-9.4,13.7c-.3.5-1,.5-1.4.1l-4.5-4.5c-.4-.4-.3-1.1.1-1.4l13.8-9.3c.4-.2.8-.2,1.1.1"/>
    <path class="st2" d="M490.8,35.7h0c.3-.3.8-.3,1.1-.1l13.7,9.4c.5.3.5,1,.1,1.4l-4.5,4.5c-.4.4-1.1.3-1.4-.1l-9.2-13.9c-.2-.4-.2-.8.1-1.1"/>
    <path class="st2" d="M492.8,38h0c-.3.3-.8.3-1.1.1l-13.7-9.4c-.5-.3-.5-1-.1-1.4l4.5-4.5c.4-.4,1.1-.3,1.4.1l9.2,13.9c.2.4.2.8-.1,1.1"/>
    <path class="st3" d="M491.7,34.4c-1.3,0-2.4,1.1-2.4,2.4s1,2.5,2.4,2.5,2.5-1.1,2.5-2.5-1.1-2.4-2.5-2.4"/>
    <path class="st2" d="M80.7,109.8h0c-3.6-3.6-4.2-9.4-1.3-13.6l113-165.2c3.8-5.5,11.6-6.3,16.4-1.5l53.6,53.7c4.8,4.8,4,12.7-1.6,16.5L94.2,111.1c-4.2,2.8-9.9,2.3-13.5-1.3"/>
    <path class="st2" d="M108.4,85.3h0c3.6,3.6,4.2,9.4,1.3,13.6L-3.4,264.1c-3.8,5.5-11.6,6.3-16.4,1.5l-53.6-53.7c-4.8-4.8-4-12.7,1.6-16.5L94.9,84c4.2-2.8,9.9-2.3,13.5,1.3"/>
    <path class="st2" d="M82.3,83.7h0c3.6-3.6,9.4-4.2,13.6-1.3l165,113.1c5.5,3.8,6.2,11.7,1.5,16.4l-53.6,53.7c-4.8,4.8-12.7,4-16.4-1.6L81,97.2c-2.8-4.2-2.3-9.9,1.3-13.5"/>
    <path class="st2" d="M106.7,111.4h0c-3.6,3.6-9.4,4.2-13.6,1.3L-71.9-.5c-5.5-3.8-6.2-11.7-1.5-16.4l53.6-53.7c4.8-4.8,12.7-4,16.4,1.6L108.1,97.9c2.8,4.2,2.3,9.9-1.3,13.5"/>
    <path class="st3" d="M94,68c-15.5,0-28.6,13.4-28.6,29.2s12.3,29.8,28.6,29.8,29.8-13.6,29.8-29.8-12.8-29.2-29.8-29.2"/>
    <text class="st4" transform="translate(417.8 160.9)"><tspan x="0" y="0"> </tspan></text>
    <g>
      <path class="st3" d="M335.7,183.9h-1.4v-1.6h0c-.2.3-.5.6-.8.9-.3.2-.6.4-1,.6-.3.2-.7.3-1,.3-.4,0-.7.1-1,.1-.8,0-1.5-.1-2.1-.4-.6-.3-1.2-.6-1.6-1.1-.5-.5-.8-1-1.1-1.6-.3-.6-.4-1.3-.4-2.1s.1-1.4.4-2.1c.3-.6.6-1.2,1.1-1.6s1-.8,1.6-1.1c.6-.3,1.3-.4,2.1-.4s.7,0,1,.1c.4,0,.7.2,1,.3.3.2.7.4,1,.6.3.2.6.5.8.9h0v-7.7h1.4v15.9ZM326.7,179c0,.5,0,1.1.3,1.5.2.5.4.9.7,1.2.3.4.7.6,1.2.8.5.2,1,.3,1.5.3s1.1-.1,1.6-.3c.5-.2.9-.5,1.2-.8.4-.3.6-.8.8-1.2.2-.5.3-1,.3-1.5s0-1.1-.3-1.5c-.2-.5-.5-.9-.8-1.2-.4-.3-.8-.6-1.2-.8-.5-.2-1-.3-1.6-.3s-1.1.1-1.5.3c-.5.2-.8.5-1.2.8-.3.4-.6.8-.7,1.2-.2.5-.3,1-.3,1.5Z"/>
      <path class="st3" d="M339.7,179.4c0,.5.2,1,.4,1.4.2.4.5.8.8,1.1s.7.6,1.1.7c.4.2.9.3,1.4.3.7,0,1.4-.2,1.9-.5.5-.3.9-.7,1.2-1.2l1.1.9c-.6.7-1.2,1.3-1.9,1.6-.7.3-1.5.5-2.3.5s-1.4-.1-2-.4c-.6-.3-1.2-.6-1.6-1.1-.4-.5-.8-1-1.1-1.6-.3-.6-.4-1.3-.4-2.1s.1-1.4.4-2.1c.3-.6.6-1.2,1-1.6.4-.5,1-.8,1.6-1.1.6-.3,1.3-.4,2-.4s1.4.1,2,.4c.6.3,1.1.6,1.5,1.1s.7,1,.9,1.6.3,1.2.3,1.9v.6h-8.2ZM346.3,178.2c0-.9-.3-1.7-.8-2.3-.6-.6-1.3-.9-2.4-.9s-.9,0-1.3.3c-.4.2-.8.4-1.1.7s-.6.6-.8,1c-.2.4-.3.8-.3,1.2h6.6Z"/>
      <path class="st3" d="M360.8,175.3h-2.3v8.6h-1.4v-8.6h-2.1v-1.3h2.1v-2.7c0-1.3.3-2.2.9-2.8s1.4-.8,2.4-.8.4,0,.6,0c.2,0,.4,0,.6.1l-.3,1.3c-.2,0-.3,0-.5-.1-.2,0-.4,0-.5,0-.4,0-.7,0-.9.2-.2.1-.4.3-.5.5s-.2.5-.3.8c0,.3,0,.6,0,1v2.5h2.3v1.3Z"/>
      <path class="st3" d="M372.4,179c0,.7-.1,1.4-.4,2.1-.3.6-.6,1.2-1.1,1.6-.5.5-1,.8-1.6,1.1-.6.3-1.3.4-2.1.4s-1.5-.1-2.1-.4c-.6-.3-1.2-.6-1.6-1.1-.5-.5-.8-1-1.1-1.6-.3-.6-.4-1.3-.4-2.1s.1-1.4.4-2.1c.3-.6.6-1.2,1.1-1.6s1-.8,1.6-1.1c.6-.3,1.3-.4,2.1-.4s1.5.1,2.1.4c.6.3,1.2.6,1.6,1.1s.8,1,1.1,1.6c.3.6.4,1.3.4,2.1ZM370.8,179c0-.5,0-1.1-.3-1.5-.2-.5-.4-.9-.7-1.2-.3-.3-.7-.6-1.2-.8-.5-.2-1-.3-1.5-.3s-1.1.1-1.5.3c-.5.2-.8.5-1.2.8-.3.4-.6.8-.7,1.2-.2.5-.3,1-.3,1.5s0,1.1.3,1.5c.2.5.4.9.7,1.2.3.4.7.6,1.2.8.5.2,1,.3,1.5.3s1.1-.1,1.5-.3c.5-.2.8-.5,1.2-.8.3-.3.6-.8.7-1.2.2-.5.3-1,.3-1.5Z"/>
      <path class="st3" d="M375,177.1c0-.4,0-.9,0-1.3,0-.4,0-1,0-1.7h1.4v1.8h0c0-.3.2-.5.4-.8.2-.2.4-.5.7-.7.3-.2.6-.4.9-.5s.7-.2,1.2-.2.7,0,1,.1l-.3,1.4c-.2,0-.4-.1-.8-.1-.5,0-1,.1-1.4.3-.4.2-.7.5-.9.8-.3.3-.4.7-.6,1-.1.4-.2.7-.2,1.1v5.5h-1.4v-6.8Z"/>
      <path class="st3" d="M382.2,176.3c0-.4,0-.7,0-1.1s0-.7,0-1.1h1.5v1.5h0c.3-.6.8-1,1.4-1.3.6-.3,1.2-.4,1.8-.4s.5,0,.9,0c.3,0,.6.2.9.3.3.1.5.4.8.6.2.3.5.6.6,1,.3-.6.7-1.1,1.3-1.5.6-.4,1.2-.5,1.9-.5,1.3,0,2.2.3,2.8,1,.6.7.9,1.6.9,2.8v6.2h-1.4v-5.7c0-1-.2-1.8-.5-2.3-.4-.5-1-.8-2-.8s-1,.1-1.3.3c-.4.2-.6.5-.9.8-.2.3-.4.7-.5,1.1,0,.4-.1.9-.1,1.3v5.2h-1.4v-5.7c0-1-.2-1.8-.5-2.3-.4-.5-1-.8-2-.8s-.3,0-.6,0c-.3,0-.6.2-.9.5-.3.3-.6.6-.9,1.1-.3.5-.4,1.2-.4,2.1v5h-1.4v-7.6Z"/>
      <path class="st3" d="M406.4,177.9v-.3c0-1.7-.8-2.5-2.5-2.5s-2.1.4-3,1.2l-.8-1c.9-1,2.3-1.4,4.2-1.4s.9,0,1.4.2c.4.1.8.4,1.1.6.3.3.6.6.8,1.1.2.4.3,1,.3,1.6v4.4c0,.4,0,.8,0,1.2,0,.4,0,.8.1,1h-1.3c0-.2,0-.5,0-.8s0-.6,0-.8h0c-.4.7-.9,1.1-1.4,1.4-.6.3-1.2.4-2,.4s-.9,0-1.3-.2c-.4-.1-.8-.3-1.1-.5-.3-.2-.6-.5-.8-.9s-.3-.8-.3-1.2c0-.8.2-1.4.6-1.9.4-.5.9-.8,1.6-1,.6-.2,1.3-.4,2-.4s1.4,0,1.9,0h.7ZM405.7,179c-.4,0-.8,0-1.3,0s-1,.1-1.5.3c-.5.1-.9.3-1.2.6-.3.3-.5.7-.5,1.2s0,.6.2.8c.1.2.3.4.5.6s.5.3.7.3.5,0,.8,0c.5,0,.9,0,1.3-.3.4-.2.7-.4.9-.7s.4-.6.6-1c.1-.4.2-.8.2-1.2v-.7h-.7Z"/>
      <path class="st3" d="M416.1,175.3h-2.8v5.8c0,.4,0,.7.1.9,0,.2.2.4.3.5.1.1.3.2.5.3.2,0,.4,0,.6,0s.5,0,.7-.1c.3,0,.5-.2.7-.3v1.3c-.5.2-1.1.4-1.8.4s-.5,0-.8-.1c-.3,0-.5-.2-.8-.4-.2-.2-.4-.5-.6-.8-.2-.3-.2-.8-.2-1.3v-6.2h-2.1v-1.3h2.1v-2.8h1.4v2.8h2.8v1.3Z"/>
      <path class="st3" d="M420,170.3c0,.3-.1.5-.3.7s-.4.3-.7.3-.5,0-.7-.3-.3-.4-.3-.7.1-.5.3-.7.4-.3.7-.3.5,0,.7.3.3.4.3.7ZM419.7,183.9h-1.4v-9.8h1.4v9.8Z"/>
      <path class="st3" d="M432.9,179c0,.7-.1,1.4-.4,2.1-.3.6-.6,1.2-1.1,1.6-.5.5-1,.8-1.6,1.1-.6.3-1.3.4-2.1.4s-1.5-.1-2.1-.4c-.6-.3-1.2-.6-1.6-1.1-.5-.5-.8-1-1.1-1.6s-.4-1.3-.4-2.1.1-1.4.4-2.1c.3-.6.6-1.2,1.1-1.6.5-.5,1-.8,1.6-1.1.6-.3,1.3-.4,2.1-.4s1.5.1,2.1.4c.6.3,1.2.6,1.6,1.1s.8,1,1.1,1.6c.3.6.4,1.3.4,2.1ZM431.4,179c0-.5,0-1.1-.3-1.5-.2-.5-.4-.9-.7-1.2-.3-.3-.7-.6-1.2-.8-.5-.2-1-.3-1.5-.3s-1.1.1-1.5.3c-.5.2-.8.5-1.2.8-.3.4-.6.8-.7,1.2s-.3,1-.3,1.5,0,1.1.3,1.5.4.9.7,1.2c.3.4.7.6,1.2.8.5.2,1,.3,1.5.3s1.1-.1,1.5-.3c.5-.2.8-.5,1.2-.8.3-.3.6-.8.7-1.2.2-.5.3-1,.3-1.5Z"/>
      <path class="st3" d="M436.8,174.1c0,.3,0,.5,0,.8,0,.3,0,.5,0,.8h0c.2-.3.3-.5.6-.7.2-.2.5-.4.8-.6.3-.2.6-.3.9-.4.3,0,.7-.1,1-.1,1.3,0,2.2.3,2.8,1,.6.7.9,1.6.9,2.8v6.2h-1.4v-5.4c0-1.1-.2-1.9-.6-2.5-.4-.6-1.1-.9-2.1-.9s-.3,0-.6,0-.7.2-1,.5-.7.6-1,1.1c-.3.5-.4,1.2-.4,2.1v5h-1.4v-7.7c0-.3,0-.6,0-1,0-.4,0-.8,0-1.2h1.4Z"/>
      <path class="st3" d="M455,170.3c0,.3-.1.5-.3.7s-.4.3-.7.3-.5,0-.7-.3-.3-.4-.3-.7.1-.5.3-.7.4-.3.7-.3.5,0,.7.3.3.4.3.7ZM454.7,183.9h-1.4v-9.8h1.4v9.8Z"/>
      <path class="st3" d="M459.3,174.1c0,.3,0,.5,0,.8,0,.3,0,.5,0,.8h0c.2-.3.3-.5.6-.7.2-.2.5-.4.8-.6.3-.2.6-.3.9-.4.3,0,.7-.1,1-.1,1.3,0,2.2.3,2.8,1,.6.7.9,1.6.9,2.8v6.2h-1.4v-5.4c0-1.1-.2-1.9-.6-2.5-.4-.6-1.1-.9-2.1-.9s-.3,0-.6,0-.7.2-1,.5-.7.6-1,1.1c-.3.5-.4,1.2-.4,2.1v5h-1.4v-7.7c0-.3,0-.6,0-1,0-.4,0-.8,0-1.2h1.4Z"/>
      <path class="st3" d="M474.8,175.3h-2.8v5.8c0,.4,0,.7.1.9,0,.2.2.4.3.5.1.1.3.2.5.3.2,0,.4,0,.6,0s.5,0,.7-.1c.3,0,.5-.2.7-.3v1.3c-.5.2-1.1.4-1.8.4s-.5,0-.8-.1c-.3,0-.5-.2-.8-.4-.2-.2-.4-.5-.6-.8-.2-.3-.2-.8-.2-1.3v-6.2h-2.1v-1.3h2.1v-2.8h1.4v2.8h2.8v1.3Z"/>
      <path class="st3" d="M477.6,179.4c0,.5.2,1,.4,1.4s.5.8.8,1.1c.3.3.7.6,1.1.7.4.2.9.3,1.4.3.7,0,1.4-.2,1.9-.5.5-.3.9-.7,1.2-1.2l1.1.9c-.6.7-1.2,1.3-1.9,1.6s-1.5.5-2.3.5-1.4-.1-2-.4c-.6-.3-1.2-.6-1.6-1.1-.4-.5-.8-1-1.1-1.6s-.4-1.3-.4-2.1.1-1.4.4-2.1c.3-.6.6-1.2,1-1.6s1-.8,1.6-1.1c.6-.3,1.3-.4,2-.4s1.4.1,2,.4c.6.3,1.1.6,1.5,1.1s.7,1,.9,1.6c.2.6.3,1.2.3,1.9v.6h-8.2ZM484.3,178.2c0-.9-.3-1.7-.8-2.3-.6-.6-1.3-.9-2.4-.9s-.9,0-1.3.3c-.4.2-.8.4-1.1.7-.3.3-.6.6-.8,1-.2.4-.3.8-.3,1.2h6.6Z"/>
      <path class="st3" d="M488.5,177.1c0-.4,0-.9,0-1.3,0-.4,0-1,0-1.7h1.4v1.8h0c0-.3.2-.5.4-.8.2-.2.4-.5.7-.7.3-.2.6-.4.9-.5.3-.1.7-.2,1.2-.2s.7,0,1,.1l-.3,1.4c-.2,0-.4-.1-.8-.1-.5,0-1,.1-1.4.3-.4.2-.7.5-.9.8-.3.3-.4.7-.6,1-.1.4-.2.7-.2,1.1v5.5h-1.4v-6.8Z"/>
      <path class="st3" d="M497,174.1c0,.3,0,.5,0,.8,0,.3,0,.5,0,.8h0c.2-.3.3-.5.6-.7.2-.2.5-.4.8-.6.3-.2.6-.3.9-.4.3,0,.7-.1,1-.1,1.3,0,2.2.3,2.8,1,.6.7.9,1.6.9,2.8v6.2h-1.4v-5.4c0-1.1-.2-1.9-.6-2.5-.4-.6-1.1-.9-2.1-.9s-.3,0-.6,0-.7.2-1,.5-.7.6-1,1.1c-.3.5-.4,1.2-.4,2.1v5h-1.4v-7.7c0-.3,0-.6,0-1,0-.4,0-.8,0-1.2h1.4Z"/>
      <path class="st3" d="M508.3,179.4c0,.5.2,1,.4,1.4s.5.8.8,1.1c.3.3.7.6,1.1.7.4.2.9.3,1.4.3.7,0,1.4-.2,1.9-.5.5-.3.9-.7,1.2-1.2l1.1.9c-.6.7-1.2,1.3-1.9,1.6s-1.5.5-2.3.5-1.4-.1-2-.4c-.6-.3-1.2-.6-1.6-1.1-.4-.5-.8-1-1.1-1.6s-.4-1.3-.4-2.1.1-1.4.4-2.1c.3-.6.6-1.2,1-1.6s1-.8,1.6-1.1c.6-.3,1.3-.4,2-.4s1.4.1,2,.4c.6.3,1.1.6,1.5,1.1s.7,1,.9,1.6c.2.6.3,1.2.3,1.9v.6h-8.2ZM515,178.2c0-.9-.3-1.7-.8-2.3-.6-.6-1.3-.9-2.4-.9s-.9,0-1.3.3c-.4.2-.8.4-1.1.7-.3.3-.6.6-.8,1-.2.4-.3.8-.3,1.2h6.6Z"/>
    </g>
    <line class="st0" x1="379" y1="197.5" x2="462.9" y2="197.5"/>
    <path class="st3" d="M876.3,42c-94.1,0-173.7,81.2-173.7,177.4s74.7,180.9,173.7,180.9,180.7-82.8,180.7-180.9-77.7-177.4-180.7-177.4"/>
    <path class="st3" d="M450.2,157.7c0,.2-.4,1.1-1.4,2-1,.9-2.3,1.4-4.1,1.4-3.5,0-5.9-2.2-5.9-5.5v-4.2c0-3.3,2.3-5.5,5.9-5.5s2,.2,2.8.6c1.7.8,2.6,2.1,2.6,2.7s0,.2-.2.3l-2.1,1c0,0-.1,0-.2,0-.1,0-.2,0-.3-.2-.8-1.1-1.4-1.8-2.7-1.8s-2.9,1.3-2.9,2.9v4.2c0,1.6,1.3,2.9,2.9,2.9s1.4-.3,1.8-.7c.7-.8,1-1.4,1.2-1.4s.1,0,.2,0l2.1,1c.1,0,.2.1.2.2"/>
    <path class="st3" d="M460.9,155.1c0-.2-.1-.3-.3-.3h-3.7c-.8,0-1.4.6-1.4,1.4v.5c0,.8.6,1.5,1.4,1.5h1.3c1.2,0,2.2-.8,2.8-2.3v-.6s0-.1,0-.1ZM463.5,160.8h-2c-.2,0-.3,0-.3-.3v-.4c0-.2,0-.4-.2-.4-.5,0-1.4,1.1-2.9,1.1h-1.3c-2.6,0-4.3-1.7-4.3-4.1v-.2c0-2.3,1.8-4,4.3-4h3.7c.2,0,.3,0,.3-.3v-.9c0-1.7-1.3-2.9-3-2.9s-1.4.3-1.8.7c-.7.8-1,1.3-1.2,1.3s-.1,0-.2,0l-2-1c-.1,0-.2-.1-.2-.3,0-.3.4-1.1,1.5-2,.9-.8,2.2-1.2,3.9-1.2,3.5,0,5.8,2.2,5.9,5.4v4.3s0,4.9,0,4.9c0,.2,0,.3-.3.3"/>
    <path class="st3" d="M473.5,161.1c-2.7,0-5.2-2.2-5.2-5.5v-6.5c0-.2,0-.3-.3-.3h-1.8c-.2,0-.3,0-.3-.3v-1.1c0,0,3.8-4,3.8-4h.2c0,0,1,0,1,0,.2,0,.3,0,.3.3v2.3c0,.2,0,.3.3.3h2.3c.2,0,.3,0,.3.3v2c0,.2,0,.3-.3.3h-2.3c-.2,0-.3,0-.3.3v6.5c0,.7.2,1.3.7,1.9.3.4,1,.6,2,1,.2,0,.3.1.3.3v2c0,.3-.2.3-.6.3"/>
    <path class="st3" d="M413.6,161.1c-2.7,0-5.2-2.2-5.2-5.5v-6.5c0-.2,0-.3-.3-.3h-1.8c-.2,0-.3,0-.3-.3v-1.1c0,0,3.8-4,3.8-4h.2c0,0,1,0,1,0,.2,0,.3,0,.3.3v2.3c0,.2,0,.3.3.3h2.3c.2,0,.3,0,.3.3v2c0,.2,0,.3-.3.3h-2.3c-.2,0-.3,0-.3.3v6.5c0,.7.2,1.3.7,1.9.3.4,1,.6,2,1,.2,0,.3.1.3.3v2c0,.3-.2.3-.6.3"/>
    <path class="st3" d="M430.7,142.5c0,.2-.2.2-.3.2-.4,0-.7,0-.8,0-1.7,0-2.9,1.3-2.9,2.9v1.8c0,.2,0,.3.3.3h2.3c.2,0,.3,0,.3.3v2c0,.2,0,.3-.3.3h-2.3c-.2,0-.3,0-.3.3v9.9c0,.2,0,.3-.3.3h-2.3c-.2,0-.3,0-.3-.3v-9.9c0-.2,0-.3-.3-.3h-.8c-.2,0-.3,0-.3-.3v-2c0-.2,0-.3.3-.3h.8c.2,0,.3,0,.3-.3v-1.5c0-1.5.6-3,1.7-4.1,1-1.1,2.5-1.7,4.2-1.7s1.8,0,1.8.4,0,0,0,.1l-.7,1.9Z"/>
    <path class="st3" d="M403.7,149.3c-.3,0-.8-.2-1.6-.2-1.8,0-2.9,1.1-2.9,2.9v8.5c0,.2,0,.3-.3.3h-2.3c-.2,0-.3,0-.3-.3v-14c0-.2,0-.3.3-.3h2c.2,0,.3,0,.3.3v1c0,.3.1.4.3.4.3,0,1.3-1.8,3.1-1.8s1.7,0,1.7.4v2.4c0,.2,0,.3-.2.3"/>
    <path class="st3" d="M380,157.7c0,.2-.4,1.1-1.4,2-1,.9-2.3,1.4-4.1,1.4h-1c-3.5,0-5.9-2.2-5.9-5.5v-10.1c0-3.3,2.3-5.5,5.9-5.5h1c3.2,0,5.4,2,5.4,3.3s0,.2-.2.3l-2.1,1c0,0-.1,0-.2,0-.1,0-.2,0-.3-.2-.7-1-1.3-1.8-2.7-1.8h-1c-1.6,0-2.9,1.3-2.9,2.9v10.1c0,1.6,1.3,2.9,2.9,2.9h1c.8,0,1.5-.3,1.8-.7.7-.8,1-1.4,1.2-1.4s.1,0,.2,0l2.1,1c.1,0,.2.1.2.2"/>
    <path class="st3" d="M390.7,151.6h-5.2c-.3,0-.3-.1-.3-.5,0-1.4,1.4-2.8,2.9-2.8s2.9,1.3,2.9,2.7,0,.6-.3.6M388.1,145.8c-3.3,0-5.9,2.6-5.9,5.5v4.3c0,3.3,2.6,5.5,5.2,5.5s.6,0,.6-.3v-2c0-.2,0-.3-.3-.3-1-.4-1.7-.7-2-1-.5-.6-.7-1.2-.7-1.9h0v-1.3c0-.2,0-.3.3-.3h8.1c.2,0,.3,0,.3-.3v-2.3c0-3-2.6-5.5-5.9-5.5"/>
    <path class="st3" d="M419.3,161.1h-2.3c-.2,0-.3,0-.3-.3v-14c0-.2,0-.3.3-.3h2.3c.2,0,.3,0,.3.3v14c0,.2,0,.3-.3.3M418.2,143.8c-1,0-1.8-.7-1.8-1.8s.8-1.8,1.8-1.8,1.8.8,1.8,1.8-.8,1.8-1.8,1.8"/>
    <path class="st3" d="M436,161.1h-2.3c-.2,0-.3,0-.3-.3v-14c0-.2,0-.3.3-.3h2.3c.2,0,.3,0,.3.3v14c0,.2,0,.3-.3.3M434.8,143.8c-1,0-1.8-.7-1.8-1.8s.8-1.8,1.8-1.8,1.8.8,1.8,1.8-.8,1.8-1.8,1.8"/>
    <path class="st3" d="M207.1,481.7c-64.6,0-112.2,45-112.2,104.7v187.7c0,6.6,3.6,10.2,10.2,10.2h29.6c6.6,0,10.2-3.6,10.2-10.2v-187.7c0-33.8,27.8-61.3,61.9-61.3s61.9,27.5,61.9,61.3v187.7c0,6.6,3.6,10.2,10.2,10.2h29.6c6.6,0,10.2-3.6,10.2-10.2v-187.7c0-59.7-47.2-104.2-111.8-104.7h0Z"/>
  </g>
</svg>